<svg xmlns="http://www.w3.org/2000/svg" width="430" height="430" style="width:100%;height:100%;transform:translate3d(0,0,0);content-visibility:visible" viewBox="0 0 430 430"><defs><clipPath id="a"><path d="M0 0h430v430H0z"/></clipPath><clipPath id="e"><path d="M0 0h430v430H0z"/></clipPath><clipPath id="d"><path d="M0 0h430v430H0z"/></clipPath><clipPath id="c"><path d="M0 0h430v430H0z"/></clipPath><clipPath id="b"><path d="M0 0h430v430H0z"/></clipPath></defs><g fill="none" clip-path="url(#a)"><g clip-path="url(#b)" style="display:none"><path class="primary" style="display:none"/><path class="secondary" style="display:none"/></g><g clip-path="url(#c)" style="display:none"><path class="primary" style="display:none"/><path class="secondary" style="display:none"/></g><g stroke="#000" stroke-linejoin="round" stroke-width="12" clip-path="url(#d)" style="display:block"><path d="M-132.071-27.5c37.638 0 69.128-28.568 72.783-66.028l3.14-32.187 2.756-28.241c.75-7.684 7.209-13.544 14.929-13.544h1.392c27.614 0 50 22.386 50 50v80h79.134c24.438 0 43.164 21.722 39.564 45.893l-18.618 125C110.09 152.992 93.261 167.5 73.445 167.5H-67.071l-65-25" class="primary" style="display:block" transform="translate(252.071 202.5)"/><path d="M35-100h-70v200h70v-200z" class="secondary" style="display:block" transform="translate(85 260)"/></g><g clip-path="url(#e)" style="display:none"><path class="primary" style="display:none"/><path class="secondary" style="display:none"/></g></g></svg>